<svg xmlns="http://www.w3.org/2000/svg" width="210" height="210" fill="none" fill-rule="evenodd"><path d="M104.927 201.3l38.64-118.92h-77.28l38.64 118.92z" fill="#e24329"/><path d="M104.927 201.3L66.287 82.39H12.134l92.793 118.92z" fill="#fc6d26"/><path d="M12.134 82.39L.392 118.528a8 8 0 0 0 2.906 8.944l101.63 73.838L12.134 82.39z" fill="#fca326"/><path d="M12.134 82.39h54.153L43.014 10.764c-1.197-3.686-6.41-3.685-7.608 0L12.134 82.39z" fill="#e24329"/><path d="M104.927 201.3l38.64-118.92h54.153L104.927 201.3z" fill="#fc6d26"/><path d="M197.72 82.39l11.742 36.14a8 8 0 0 1-2.906 8.944L104.927 201.3 197.72 82.39z" fill="#fca326"/><path d="M197.72 82.39h-54.153l23.273-71.625c1.197-3.686 6.41-3.685 7.608 0L197.72 82.39z" fill="#e24329"/></svg>